#!OML:ASF F:\VICON\USERDATA\INSTALL\rory7\rory7.ASF
:FULLY-SPECIFIED
:DEGREES
965
root -0.0877582 18.8445 4.23358 -3.18305 -5.45419 -0.648192
lowerback 11.838 0.719536 0.476919
upperback -3.52728 0.756276 -2.84641
thorax -10.4375 0.218695 -3.50525
lowerneck -13.9951 -6.78389 -7.4378
upperneck -35.3666 -5.36367 14.893
head -8.12257 -2.72687 6.67687
rclavicle 9.83984e-015 7.95139e-015
rhumerus 63.2421 -24.142 -50.611
rradius 124.487
rwrist 14.8934
rhand -48.5774 13.7607
rfingers 7.12502
rthumb -21.2232 -15.0975
lclavicle 9.83984e-015 7.95139e-015
lhumerus -38.2237 14.4854 63.8757
lradius 21.23
lwrist -7.86163
lhand -26.8535 22.0575
lfingers 7.12502
lthumb -0.278563 52.037
rfemur 0 0 0
rtibia 0
rfoot 0 0
rtoes 0
lfemur 7.08577 -11.361 -18.3995
ltibia 10.5056
lfoot -14.005 23.3891
ltoes -5.20735
966
root -0.0839963 18.8458 4.23565 -3.16221 -5.46872 -0.535669
lowerback 11.6491 0.767623 0.368184
upperback -3.49599 0.805454 -2.8557
thorax -10.2891 0.251773 -3.45678
lowerneck -13.7266 -6.86956 -7.72752
upperneck -35.0515 -5.43902 15.1638
head -8.00476 -2.75779 6.80791
rclavicle -3.27995e-015 1.51076e-014
rhumerus 62.4999 -23.77 -50.3841
rradius 124.758
rwrist 14.6838
rhand -48.2948 13.5718
rfingers 7.12502
rthumb -20.9516 -15.3166
lclavicle -3.27995e-015 1.51076e-014
lhumerus -38.3865 14.4148 63.9691
lradius 21.3971
lwrist -8.00473
lhand -26.786 21.6585
lfingers 7.12502
lthumb -0.213415 51.6381
rfemur 0 0 0
rtibia 0
rfoot 0 0
rtoes 0
lfemur 7.08191 -11.4581 -18.5695
ltibia 10.4914
lfoot -13.9792 23.5382
ltoes -5.43593
967
root -0.0805957 18.8481 4.22969 -3.07881 -5.39702 -0.489723
lowerback 11.4758 0.800187 0.338502
upperback -3.54039 0.845083 -2.8629
thorax -10.2338 0.273092 -3.45174
lowerneck -13.1953 -6.94946 -7.97918
upperneck -34.8293 -5.53562 15.377
head -7.96409 -2.80742 6.92745
rclavicle 1.27222e-014 7.15625e-015
rhumerus 61.605 -23.4098 -50.1165
rradius 125.069
rwrist 14.4362
rhand -48.0136 13.9021
rfingers 7.12502
rthumb -20.6815 -15.016
lclavicle 1.27222e-014 7.15625e-015
lhumerus -38.6031 14.3688 63.9424
lradius 21.4874
lwrist -8.66191
lhand -26.4286 21.735
lfingers 7.12502
lthumb 0.131828 51.7147
rfemur 0 0 0
rtibia 0
rfoot 0 0
rtoes 0
lfemur 6.96197 -11.5198 -18.6188
ltibia 10.4857
lfoot -13.8845 23.5784
ltoes -5.57767
968
root -0.0796898 18.8502 4.22267 -3.04804 -5.35 -0.522593
lowerback 11.3896 0.808879 0.360299
upperback -3.47775 0.863499 -2.85314
thorax -10.1121 0.28347 -3.45243
lowerneck -13.1076 -7.05837 -8.07032
upperneck -34.397 -5.69454 15.4773
head -7.78587 -2.88466 6.94444
rclavicle 1.11319e-014 2.38542e-015
rhumerus 60.8147 -23.1016 -49.8919
rradius 125.398
rwrist 14.3049
rhand -47.8831 14.0732
rfingers 7.12502
rthumb -20.5561 -14.8585
lclavicle 1.11319e-014 2.38542e-015
lhumerus -38.5927 14.6003 63.8263
lradius 21.5279
lwrist -9.70273
lhand -26.2431 21.2559
lfingers 7.12502
lthumb 0.31096 51.2354
rfemur 0 0 0
rtibia 0
rfoot 0 0
rtoes 0
lfemur 6.87567 -11.6084 -18.5843
ltibia 10.5367
lfoot -13.8988 23.6297
ltoes -5.44187
969
root -0.0799369 18.8511 4.21874 -3.05449 -5.3082 -0.566039
lowerback 11.347 0.790491 0.35255
upperback -3.33745 0.845442 -2.80743
thorax -9.93339 0.280995 -3.38911
lowerneck -13.3499 -7.13822 -8.15119
upperneck -33.7864 -5.82185 15.5012
head -7.50474 -2.93265 6.90806
rclavicle -3.97569e-016 -7.95139e-015
rhumerus 60.1048 -22.7742 -49.5987
rradius 125.72
rwrist 14.2416
rhand -47.7894 12.9116
rfingers 7.12502
rthumb -20.466 -16.0298
lclavicle -3.97569e-016 -7.95139e-015
lhumerus -38.4899 14.6701 63.9556
lradius 21.7434
lwrist -10.1409
lhand -26.2564 20.3943
lfingers 7.12502
lthumb 0.298068 50.3739
rfemur 0 0 0
rtibia 0
rfoot 0 0
rtoes 0
lfemur 6.82906 -11.6485 -18.5365
ltibia 10.6154
lfoot -13.9355 23.6204
ltoes -5.47823
970
root -0.0789576 18.8519 4.2144 -3.02864 -5.23728 -0.614648
lowerback 11.2453 0.752906 0.342303
upperback -3.23464 0.801246 -2.76043
thorax -9.76334 0.26556 -3.3176
lowerneck -13.2767 -7.14823 -8.28293
upperneck -33.4058 -5.84468 15.581
head -7.36377 -2.93911 6.93269
rclavicle -4.67144e-015 1.43125e-014
rhumerus 59.2982 -22.3006 -49.2826
rradius 126.007
rwrist 14.2668
rhand -47.7217 11.3021
rfingers 7.12502
rthumb -20.4009 -17.6462
lclavicle -4.67144e-015 1.43125e-014
lhumerus -38.4643 14.3466 64.3049
lradius 22.0377
lwrist -9.73614
lhand -26.1565 21.7334
lfingers 7.12502
lthumb 0.394615 51.7128
rfemur 0 0 0
rtibia 0
rfoot 0 0
rtoes 0
lfemur 6.74536 -11.5689 -18.4558
ltibia 10.6819
lfoot -13.8514 23.4967
ltoes -5.79136
971
root -0.0780579 18.8523 4.21004 -3.01779 -5.14543 -0.620919
lowerback 11.0802 0.721869 0.291846
upperback -3.1466 0.758823 -2.72878
thorax -9.57281 0.252841 -3.23925
lowerneck -12.9807 -7.1778 -8.44173
upperneck -33.0834 -5.90018 15.6887
head -7.27066 -2.96769 6.98333
rclavicle 1.11319e-014 -2.22639e-014
rhumerus 58.42 -21.7455 -49.0264
rradius 126.323
rwrist 14.1478
rhand -47.7448 10.3117
rfingers 7.12502
rthumb -20.4232 -18.6343
lclavicle 1.11319e-014 -2.22639e-014
lhumerus -38.4669 14.0128 64.6288
lradius 22.1523
lwrist -9.27874
lhand -26.3083 23.7994
lfingers 7.12502
lthumb 0.247953 53.779
rfemur 0 0 0
rtibia 0
rfoot 0 0
rtoes 0
lfemur 6.65364 -11.519 -18.4266
ltibia 10.7745
lfoot -13.7775 23.3793
ltoes -6.04787
972
root -0.0781946 18.8525 4.20309 -3.06034 -5.0733 -0.578613
lowerback 10.976 0.720453 0.146953
upperback -3.01529 0.745097 -2.66837
thorax -9.37064 0.260579 -3.0827
lowerneck -13.0732 -7.25337 -8.49529
upperneck -32.3521 -6.07972 15.5396
head -6.98185 -3.03646 6.87839
rclavicle -1.58034e-014 1.51076e-014
rhumerus 57.5595 -21.2659 -48.7557
rradius 126.697
rwrist 13.8738
rhand -47.9521 8.81856
rfingers 7.12502
rthumb -20.6224 -20.1059
lclavicle -1.58034e-014 1.51076e-014
lhumerus -38.4383 13.7103 65.0372
lradius 22.2965
lwrist -8.95676
lhand -26.598 24.3424
lfingers 7.12502
lthumb -0.031801 54.3221
rfemur 0 0 0
rtibia 0
rfoot 0 0
rtoes 0
lfemur 6.58985 -11.587 -18.4771
ltibia 10.8977
lfoot -13.8406 23.3686
ltoes -5.98256
973
root -0.0796187 18.8539 4.19052 -3.11238 -4.99965 -0.64826
lowerback 10.957 0.734644 0.0753978
upperback -2.86037 0.766668 -2.5617
thorax -9.1906 0.282018 -2.92661
lowerneck -13.4106 -7.31095 -8.30483
upperneck -31.461 -6.31554 15.0189
head -6.63502 -3.12511 6.58444
rclavicle 8.44835e-016 2.46493e-014
rhumerus 56.6545 -20.8776 -48.4208
rradius 127.057
rwrist 13.6142
rhand -48.2911 7.08898
rfingers 7.12502
rthumb -20.9481 -21.7998
lclavicle 8.44835e-016 2.46493e-014
lhumerus -38.3322 13.3127 65.5777
lradius 22.4328
lwrist -8.35328
lhand -26.3843 23.9346
lfingers 7.12502
lthumb 0.174543 53.9143
rfemur 0 0 0
rtibia 0
rfoot 0 0
rtoes 0
lfemur 6.52116 -11.6077 -18.3755
ltibia 11.0102
lfoot -13.9179 23.2903
ltoes -5.72222
974
root -0.0813836 18.8564 4.17777 -3.15234 -4.92684 -0.792177
lowerback 10.9517 0.711311 0.0883785
upperback -2.66582 0.749509 -2.46756
thorax -8.97664 0.279853 -2.82441
lowerneck -13.9585 -7.46441 -8.17894
upperneck -30.4957 -6.59793 14.8399
head -6.20629 -3.24563 6.4101
rclavicle 2.38542e-015 -1.03368e-014
rhumerus 55.8573 -20.4776 -48.2235
rradius 127.4
rwrist 13.3579
rhand -48.0378 7.41049
rfingers 7.12502
rthumb -20.7047 -21.505
lclavicle 2.38542e-015 -1.03368e-014
lhumerus -38.1136 13.0574 66.0203
lradius 22.3996
lwrist -7.54428
lhand -26.3245 22.7794
lfingers 7.12502
lthumb 0.232349 52.759
rfemur 0 0 0
rtibia 0
rfoot 0 0
rtoes 0
lfemur 6.42498 -11.563 -18.1728
ltibia 11.1486
lfoot -13.9381 23.1553
ltoes -5.5929
